<svg width="18" height="7" viewBox="0 0 18 7" fill="none" xmlns="http://www.w3.org/2000/svg">
<g clip-path="url(#clip0_264784_4177)">
<path d="M16.7506 6.56337H1.61364C1.36658 6.56337 1.12965 6.46452 0.954961 6.28856C0.78027 6.1126 0.682129 5.87395 0.682129 5.6251C0.682129 5.37626 0.78027 5.1376 0.954961 4.96164C1.12965 4.78568 1.36658 4.68683 1.61364 4.68683H16.7506C16.9977 4.68683 17.2346 4.78568 17.4093 4.96164C17.584 5.1376 17.6821 5.37626 17.6821 5.6251C17.6821 5.87395 17.584 6.1126 17.4093 6.28856C17.2346 6.46452 16.9977 6.56337 16.7506 6.56337Z" fill="#FF7A00"/>
<path d="M16.7506 2.10658H1.61364C1.36658 2.10658 1.12965 2.00773 0.954961 1.83177C0.78027 1.65581 0.682129 1.41716 0.682129 1.16831C0.682129 0.919468 0.78027 0.680815 0.954961 0.504855C1.12965 0.328895 1.36658 0.230042 1.61364 0.230042L16.7506 0.230042C16.9977 0.230042 17.2346 0.328895 17.4093 0.504855C17.584 0.680815 17.6821 0.919468 17.6821 1.16831C17.6821 1.41716 17.584 1.65581 17.4093 1.83177C17.2346 2.00773 16.9977 2.10658 16.7506 2.10658Z" fill="#FF7A00"/>
</g>
<defs>
<clipPath id="clip0_264784_4177">
<rect width="17" height="6.33333" fill="white" transform="translate(0.682129 0.230042)"/>
</clipPath>
</defs>
</svg>
