<svg width="22" height="20" viewBox="0 0 22 20" fill="none" xmlns="http://www.w3.org/2000/svg">
<path d="M15.1 10.8L13.65 9.34998C13.8 8.56664 13.575 7.83331 12.975 7.14998C12.375 6.46664 11.6 6.19998 10.65 6.34998L9.20005 4.89998C9.48338 4.76664 9.77088 4.66664 10.0625 4.59998C10.3542 4.53331 10.6667 4.49998 11 4.49998C12.25 4.49998 13.3125 4.93748 14.1875 5.81248C15.0625 6.68748 15.5 7.74998 15.5 8.99998C15.5 9.33331 15.4667 9.64581 15.4 9.93748C15.3334 10.2291 15.2334 10.5166 15.1 10.8ZM18.3 13.95L16.85 12.55C17.4834 12.0666 18.0459 11.5375 18.5375 10.9625C19.0292 10.3875 19.45 9.73331 19.8 8.99998C18.9667 7.31664 17.7709 5.97914 16.2125 4.98748C14.6542 3.99581 12.9167 3.49998 11 3.49998C10.5167 3.49998 10.0417 3.53331 9.57505 3.59998C9.10838 3.66664 8.65005 3.76664 8.20005 3.89998L6.65005 2.34998C7.33338 2.06664 8.03338 1.85414 8.75005 1.71248C9.46671 1.57081 10.2167 1.49998 11 1.49998C13.3834 1.49998 15.525 2.12914 17.425 3.38748C19.325 4.64581 20.75 6.28331 21.7 8.29998C21.75 8.38331 21.7834 8.48748 21.8 8.61248C21.8167 8.73748 21.825 8.86664 21.825 8.99998C21.825 9.13331 21.8125 9.26248 21.7875 9.38748C21.7626 9.51248 21.7334 9.61664 21.7 9.69998C21.3167 10.55 20.8375 11.3333 20.2625 12.05C19.6875 12.7666 19.0334 13.4 18.3 13.95ZM18.1 19.4L14.6 15.95C14.0167 16.1333 13.4292 16.2708 12.8375 16.3625C12.2459 16.4541 11.6334 16.5 11 16.5C8.61672 16.5 6.47505 15.8708 4.57505 14.6125C2.67505 13.3541 1.25005 11.7166 0.300049 9.69998C0.250049 9.61664 0.216715 9.51248 0.200049 9.38748C0.183382 9.26248 0.175049 9.13331 0.175049 8.99998C0.175049 8.86664 0.183382 8.74164 0.200049 8.62498C0.216715 8.50831 0.250049 8.40831 0.300049 8.32498C0.650049 7.57498 1.06672 6.88331 1.55005 6.24998C2.03338 5.61664 2.56672 5.03331 3.15005 4.49998L1.07505 2.39998C0.891716 2.21664 0.800049 1.98748 0.800049 1.71248C0.800049 1.43748 0.900049 1.19998 1.10005 0.999976C1.28338 0.816642 1.51672 0.724976 1.80005 0.724976C2.08338 0.724976 2.31672 0.816642 2.50005 0.999976L19.5 18C19.6834 18.1833 19.7792 18.4125 19.7875 18.6875C19.7959 18.9625 19.7001 19.2 19.5 19.4C19.3167 19.5833 19.0834 19.675 18.8 19.675C18.5167 19.675 18.2834 19.5833 18.1 19.4ZM4.55005 5.89998C4.06672 6.33331 3.62505 6.80831 3.22505 7.32498C2.82505 7.84164 2.48338 8.39998 2.20005 8.99998C3.03338 10.6833 4.22922 12.0208 5.78755 13.0125C7.34588 14.0041 9.08338 14.5 11 14.5C11.3334 14.5 11.6584 14.4791 11.975 14.4375C12.2917 14.3958 12.6167 14.35 12.95 14.3L12.05 13.35C11.8667 13.4 11.6917 13.4375 11.525 13.4625C11.3584 13.4875 11.1834 13.5 11 13.5C9.75005 13.5 8.68755 13.0625 7.81255 12.1875C6.93755 11.3125 6.50005 10.25 6.50005 8.99998C6.50005 8.81664 6.51255 8.64164 6.53755 8.47498C6.56255 8.30831 6.60005 8.13331 6.65005 7.94998L4.55005 5.89998Z" fill="#A8A8A8"/>
</svg>
